<svg width="34" height="34" viewBox="0 0 34 34" fill="none" xmlns="http://www.w3.org/2000/svg">
<path d="M10.3333 27L17 21.9166L23.6667 27L21.1667 18.75L27.8333 14H19.6667L17 5.33331L14.3333 14H6.16667L12.8333 18.75L10.3333 27ZM17 33.6666C14.6944 33.6666 12.5278 33.2291 10.5 32.3541C8.47222 31.4791 6.70833 30.2916 5.20833 28.7916C3.70833 27.2916 2.52083 25.5278 1.64583 23.5C0.770832 21.4722 0.333332 19.3055 0.333332 17C0.333332 14.6944 0.770832 12.5278 1.64583 10.5C2.52083 8.4722 3.70833 6.70831 5.20833 5.20831C6.70833 3.70831 8.47222 2.52081 10.5 1.64581C12.5278 0.770813 14.6944 0.333313 17 0.333313C19.3056 0.333313 21.4722 0.770813 23.5 1.64581C25.5278 2.52081 27.2917 3.70831 28.7917 5.20831C30.2917 6.70831 31.4792 8.4722 32.3542 10.5C33.2292 12.5278 33.6667 14.6944 33.6667 17C33.6667 19.3055 33.2292 21.4722 32.3542 23.5C31.4792 25.5278 30.2917 27.2916 28.7917 28.7916C27.2917 30.2916 25.5278 31.4791 23.5 32.3541C21.4722 33.2291 19.3056 33.6666 17 33.6666Z" fill="white"/>
</svg>
